<?xml version="1.0" encoding="UTF-8"?>
<svg id="Layer_1" data-name="Layer 1" xmlns="http://www.w3.org/2000/svg" viewBox="0 0 1920 1920">
  <defs>
    <style>
      .cls-1 {
        fill: #fff;
      }
    </style>
  </defs>
  <path class="cls-1" d="M401.82,951.81c9.99-11.04,20.26-21.34,31.25-31.22l24.28-21.85-23.09-23.09L121.44,562.84l-77.26,77.33,335.79,335.79,21.86-24.15Z"/>
  <path class="cls-1" d="M1152.66,1186.78l1.6,32.5c.84,12.25,2.58,19.21,2.35,22.14.23,2.92-1.51,9.89-2.35,22.14l-1.6,32.5h767.35v-109.29h-767.34Z"/>
  <path class="cls-1" d="M401.82,1531.02l-21.85-24.15-23.03,23.03L44.18,1842.66l77.26,77.33,335.84-335.84-24.15-21.85c-11.04-9.99-21.36-20.28-31.31-31.28Z"/>
  <path class="cls-1" d="M722.69,1675.29c-2.99.22-9.9-1.48-22.03-2.35l-32.62-1.72v165.07h109.29v-165.08l-32.62,1.73c-12.09.87-19.02,2.56-22.02,2.35Z"/>
  <path class="cls-1" d="M722.69,807.51c2.97-.22,9.89,1.51,22.09,2.38l32.61,1.72v-32.66s.1-556.52.1-556.52h-109.29l-.11,589.04,32.52-1.6c12.25-.84,19.21-2.59,22.08-2.36Z"/>
  <path class="cls-1" d="M1043.59,951.84l21.85,24.15,23.03-23.03,312.75-312.78-77.21-77.34-335.92,335.88,24.22,21.85c10.97,9.9,21.29,20.24,31.28,31.28Z"/>
  <path class="cls-1" d="M291.15,1263.45c-.87-12.09-2.56-19.02-2.35-22.02-.22-3,1.48-9.93,2.35-22.02l1.73-32.62H.21v109.29h292.67l-1.73-32.62Z"/>
  <path class="cls-1" d="M1043.59,1530.99c-9.97,11.02-20.28,21.33-31.28,31.25l-24.22,21.85,23.06,23.06,312.85,312.85,77.22-77.35-335.78-335.81-21.85,24.15Z"/>
  <path class="cls-1" d="M968.99,1410.41c23.26-33.85,39.43-72.47,47.18-114.34h2.23l2.07-23.66h2.91v-23.66h.47l-.47-5.3v-3.89l.48-5.45h-.48v-23.66h-2.91l-2.08-23.66h-2.22c-7.74-41.89-23.91-80.53-47.16-114.37l1.52-1.52-18.22-21.74h0s-12.32-14.7-12.32-14.7l.9-.9-5.58-4.68-4.74-5.65-.92.92-14.68-12.31h0s-21.75-18.24-21.75-18.24l-1.52,1.52c-33.83-23.25-72.46-39.43-114.34-47.18v-2.23l-28.28-2.48c-4.03-.25-10.78-1.33-19.05-1.96v-1.01l-6.24.55c-.43,0-.68-.08-1.11-.08-.39,0-.61.06-.98.07l-6.31-.56v1.03c-8.25.63-14.96,1.7-19.01,1.96h-.06s-.02,0-.02,0l-28.23,2.48v2.22c-41.9,7.74-80.54,23.93-114.4,47.19l-1.54-1.54-21.71,18.25h0s-14.67,12.3-14.67,12.3l-.91-.91-4.72,5.63-5.63,4.72.91.91-12.3,14.67h0s-18.22,21.74-18.22,21.74l1.52,1.52c-23.25,33.85-39.42,72.5-47.16,114.4h-2.11l-2.58,28.15c-.28,4.16-1.36,10.92-1.98,19.17h-1l.55,6.2c0,.43-.08.68-.08,1.12,0,.43.07.68.08,1.1l-.55,6.22h1.01c.63,8.27,1.71,15.01,1.96,19.05l2.48,28.27h2.22c7.74,41.89,23.92,80.53,47.19,114.37l-1.49,1.49,18.17,21.74.02.02s.01.02.02.03l12.26,14.62-.91.91,5.64,4.73,4.74,5.65.91-.91,14.62,12.26h.01s21.74,18.23,21.74,18.23l1.51-1.51c33.84,23.26,72.48,39.45,114.38,47.19v2.11l28.16,2.58c4.15.29,10.92,1.36,19.16,1.98v1l6.2-.55c.43,0,.68.08,1.12.08.43,0,.68-.07,1.1-.08l6.22.55v-1.01c8.25-.62,15.01-1.69,19.16-1.98l28.16-2.58v-2.11c41.89-7.74,80.52-23.92,114.37-47.19l1.51,1.51,21.75-18.23h0s14.65-12.29,14.65-12.29l.91.91,4.73-5.64,5.63-4.72-.91-.91,12.29-14.65s.01-.02.02-.02l18.22-21.74-1.51-1.51ZM841.65,1093.61h.01c10.65,8.6,20.2,18.17,28.84,28.85,22.3,27.73,36.69,61.24,40.78,98.66l2.21,20.3-2.21,20.31c-4.1,37.43-18.49,70.94-40.81,98.63l-.02.02c-8.58,10.64-18.15,20.21-28.79,28.79l-.03.03c-27.68,22.31-61.19,36.7-98.66,40.83l-20.29,2.22-20.28-2.22c-37.43-4.13-70.94-18.51-98.66-40.83l-.03-.03c-10.64-8.58-20.18-18.12-28.76-28.76-22.33-27.73-36.73-61.25-40.85-98.69v-.02l-2.22-20.2,2.22-20.37c4.1-37.44,18.51-70.94,40.81-98.69,8.64-10.68,18.19-20.25,28.8-28.8l.03-.03c27.72-22.31,61.21-36.69,98.65-40.79h.1s.03-.02.05-.02l20.19-2.2,20.16,2.2s.03,0,.05,0h.1c37.41,4.12,70.92,18.5,98.6,40.82Z"/>
</svg>